<mxfile
  host="Electron" 
  agent="Mozilla/5.0 (Macintosh; Intel Mac OS X 10_15_7) AppleWebKit/537.36 (KHTML, like Gecko) draw.io/25.0.2 Chrome/128.0.6613.186 Electron/32.2.5 Safari/537.36" 
  version="25.0.2"
  >
  <diagram
    name="-"
    >
    <mxGraphModel
      grid="1" 
      gridSize="10" 
      guides="1" 
      tooltips="1" 
      connect="1" 
      arrows="1" 
      fold="1" 
      page="1" 
      pageScale="1" 
      pageWidth="1" 
      pageHeight="1" 
      math="0" 
      shadow="0"
      >
      <root>
        <mxCell
          id="page"
          />
        <mxCell
          id="root" 
          parent="page"
          />
        <mxCell
          style="verticalAlign=top;aspect=fixed;align=center;spacingLeft=5;spacingRight=5;spacingBottom=5;strokeColor=none;" 
          id="shape_" 
          parent="root" 
          value=" " 
          vertex="1"
          >
          <mxGeometry
            as="geometry" 
            width="58" 
            height="62" 
            x="0" 
            y="0"
            />
          </mxCell>
        <mxCell
          style="sketch=0;html=1;verticalAlign=top;labelPosition=center;verticalLabelPosition=bottom;align=center;spacingTop=-6;fontSize=11;fontStyle=1;fontColor=#999999;shape=image;aspect=fixed;imageAspect=0;image=data:image/svg+xml,PHN2ZyB4bWxucz0iaHR0cDovL3d3dy53My5vcmcvMjAwMC9zdmciIHhtbG5zOnY9Imh0dHBzOi8vdmVjdGEuaW8vbmFubyIgd2lkdGg9IjE4LjI3OTk5ODc3OTI5Njg3NSIgaGVpZ2h0PSIyMCIgdmlld0JveD0iMS4yNDYyOTA4MDM4OTEyNzAxZS04IDAgMTguMjc5OTk4Nzc5Mjk2ODc1IDIwIj4mI3hhOwk8c3R5bGUgdHlwZT0idGV4dC9jc3MiPiYjeGE7CS5zdDB7ZmlsbDojNjY5ZGY2O2ZpbGwtcnVsZTpldmVub2RkfSYjeGE7CS5zdDF7ZmlsbDojNDI4NWY0O30mI3hhOwkuc3Qye2ZpbGwtcnVsZTpldmVub2RkfSYjeGE7CTwvc3R5bGU+JiN4YTsJPHBhdGggY2xhc3M9InN0MCIgZD0iTTcuNjMgOWEuOTEuOTEgMCAxIDEtLjY0My4yNjdBLjkxLjkxIDAgMCAxIDcuNjMgOXptMC0uOGExLjcxIDEuNzEgMCAxIDAgMS43IDEuNzEgMS43IDEuNyAwIDAgMC0xLjctMS43MXpNMS43MiA5YS45MS45MSAwIDEgMS0uNjQzLjI2N0EuOTEuOTEgMCAwIDEgMS43MiA5em0wLS44YTEuNzEgMS43MSAwIDEgMCAxLjcgMS43MSAxLjcgMS43IDAgMCAwLTEuNy0xLjcxem0zLjA0IDYuMTFhLjkxLjkxIDAgMSAxIDAgMS44Mi45MS45MSAwIDEgMSAwLTEuODJ6bTAtLjc5YTEuNzEgMS43MSAwIDEgMCAxLjIuNSAxLjcgMS43IDAgMCAwLTEuMi0uNXptMC05LjczYS45MS45MSAwIDAgMS0uMDQgMS44MTkuOTEuOTEgMCAwIDEtLjktLjkwOS45Mi45MiAwIDAgMSAuOTQtLjkxem0wLS44YTEuNzEgMS43MSAwIDEgMCAxLjIuNUExLjcgMS43IDAgMCAwIDQuNzYgM3oiLz4mI3hhOwk8ZyBjbGFzcz0ic3QxIj4mI3hhOwkJPHBhdGggZD0iTTcuODEgMGgxLjY4djIwSDcuODF6Ii8+JiN4YTsJCTxwYXRoIGNsYXNzPSJzdDIiIGQ9Ik0xMy40IDIuODdIOC44OWEuMzcuMzcgMCAwIDAtLjMuNHYyLjgyYS4zNi4zNiAwIDAgMCAuMy4zOWg0LjUxYS4zNi4zNiAwIDAgMCAuMzEtLjM5VjMuMjhhLjM3LjM3IDAgMCAwLS4zMS0uNDF6bTQuMzIgNS4yOUg5LjRjLS4zMSAwLS41Ni4xOC0uNTYuMzl2Mi44MmMwIC4yMi4yNS40LjU2LjRoOC4zMmMuMzEgMCAuNTYtLjE5LjU2LS40VjguNTVjMC0uMjItLjI1LS4zOS0uNTYtLjM5em0tNS45MSA1LjI4SDguMjhjLS4xMyAwLS4yMy4xOC0uMjMuMzl2Mi44MmMwIC4yMi4xLjM5LjIzLjM5aDMuNTNjLjEzIDAgLjI0LS4xOC4yNC0uMzl2LTIuODJjLS4wMS0uMjItLjExLS4zOS0uMjQtLjM5eiIvPiYjeGE7CTwvZz4mI3hhOzwvc3ZnPg;strokeColor=none;" 
          id="dataprep_by_trifacta_" 
          parent="shape_" 
          value=" " 
          vertex="1"
          >
          <mxGeometry
            width="38" 
            height="42" 
            as="geometry" 
            x="10" 
            y="10"
            />
          </mxCell>
        </root>
      </mxGraphModel>
    </diagram>
  </mxfile>